<svg width="24" height="24" viewBox="0 0 24 24" fill="none" xmlns="http://www.w3.org/2000/svg">
<path d="M18.8334 19C17.5384 19 16.5 20.0383 16.5 21.3333C16.5 21.9522 16.7459 22.5457 17.1834 22.9833C17.621 23.4208 18.2145 23.6667 18.8334 23.6667C19.4522 23.6667 20.0457 23.4208 20.4833 22.9833C20.9209 22.5457 21.1667 21.9522 21.1667 21.3333C21.1667 20.7145 20.9209 20.121 20.4833 19.6834C20.0457 19.2458 19.4522 19 18.8334 19ZM0.166687 0.333344V2.66668H2.50002L6.70002 11.5217L5.11335 14.38C4.93835 14.7067 4.83335 15.0917 4.83335 15.5C4.83335 16.1188 5.07919 16.7123 5.51677 17.1499C5.95436 17.5875 6.54785 17.8333 7.16669 17.8333H21.1667V15.5H7.65669C7.57933 15.5 7.50515 15.4693 7.45045 15.4146C7.39575 15.3599 7.36502 15.2857 7.36502 15.2083C7.36502 15.15 7.37669 15.1033 7.40002 15.0683L8.45002 13.1667H17.1417C18.0167 13.1667 18.7867 12.6767 19.1834 11.965L23.36 4.41668C23.4417 4.23001 23.5 4.03168 23.5 3.83334C23.5 3.52392 23.3771 3.22718 23.1583 3.00839C22.9395 2.78959 22.6428 2.66668 22.3334 2.66668H5.07835L3.98169 0.333344M7.16669 19C5.87169 19 4.83335 20.0383 4.83335 21.3333C4.83335 21.9522 5.07919 22.5457 5.51677 22.9833C5.95436 23.4208 6.54785 23.6667 7.16669 23.6667C7.78553 23.6667 8.37902 23.4208 8.8166 22.9833C9.25419 22.5457 9.50002 21.9522 9.50002 21.3333C9.50002 20.7145 9.25419 20.121 8.8166 19.6834C8.37902 19.2458 7.78553 19 7.16669 19Z" fill="black"/>
</svg>
