<svg width="21" height="21" viewBox="0 0 21 21" fill="none" xmlns="http://www.w3.org/2000/svg">
<path d="M15.0833 13.3333H14.1617L13.835 13.0183C14.5641 12.1713 15.097 11.1736 15.3955 10.0965C15.694 9.01953 15.7507 7.88985 15.5617 6.78833C15.0133 3.545 12.3067 0.955001 9.04 0.558334C7.89155 0.413045 6.72509 0.532401 5.62986 0.907272C4.53464 1.28214 3.53969 1.90259 2.72114 2.72114C1.90259 3.53969 1.28214 4.53464 0.907272 5.62986C0.532401 6.72509 0.413045 7.89155 0.558334 9.04C0.955001 12.3067 3.545 15.0133 6.78834 15.5617C7.88985 15.7507 9.01953 15.694 10.0966 15.3955C11.1736 15.097 12.1713 14.5641 13.0183 13.835L13.3333 14.1617V15.0833L18.2917 20.0417C18.77 20.52 19.5517 20.52 20.03 20.0417C20.5083 19.5633 20.5083 18.7817 20.03 18.3033L15.0833 13.3333ZM8.08333 13.3333C5.17833 13.3333 2.83333 10.9883 2.83333 8.08333C2.83333 5.17833 5.17833 2.83333 8.08333 2.83333C10.9883 2.83333 13.3333 5.17833 13.3333 8.08333C13.3333 10.9883 10.9883 13.3333 8.08333 13.3333Z" fill="black"/>
</svg>
