<svg width="22" height="24" viewBox="0 0 22 24" fill="none" xmlns="http://www.w3.org/2000/svg">
<path d="M11 12.9829C13.7953 12.9829 16.3375 13.7828 18.2077 14.9088C19.141 15.4735 19.939 16.1362 20.5153 16.8566C21.0823 17.5665 21.5 18.4148 21.5 19.3218C21.5 20.2957 21.0205 21.0633 20.3298 21.6108C19.6765 22.1294 18.8143 22.4729 17.8985 22.7126C16.0575 23.1932 13.6005 23.3557 11 23.3557C8.3995 23.3557 5.9425 23.1943 4.1015 22.7126C3.18567 22.4729 2.3235 22.1294 1.67017 21.6108C0.978333 21.0622 0.5 20.2957 0.5 19.3218C0.5 18.4148 0.917667 17.5665 1.48467 16.8566C2.061 16.1362 2.85783 15.4735 3.79233 14.9088C5.6625 13.7828 8.20583 12.9829 11 12.9829ZM11 0.305054C12.5471 0.305054 14.0308 0.912189 15.1248 1.9929C16.2188 3.07361 16.8333 4.53936 16.8333 6.06771C16.8333 7.59607 16.2188 9.06182 15.1248 10.1425C14.0308 11.2232 12.5471 11.8304 11 11.8304C9.4529 11.8304 7.96917 11.2232 6.87521 10.1425C5.78125 9.06182 5.16667 7.59607 5.16667 6.06771C5.16667 4.53936 5.78125 3.07361 6.87521 1.9929C7.96917 0.912189 9.4529 0.305054 11 0.305054Z" fill="black"/>
</svg>
