<svg width="26" height="26" viewBox="0 0 26 26" fill="none" xmlns="http://www.w3.org/2000/svg">
<path d="M13 21.4125L6.77501 25.1625C6.50001 25.3375 6.21251 25.4125 5.91251 25.3875C5.61251 25.3625 5.35001 25.2626 5.12501 25.0876C4.90001 24.9126 4.72501 24.694 4.60001 24.432C4.47501 24.1691 4.45001 23.875 4.52501 23.5501L6.17501 16.4625L0.662514 11.7C0.412514 11.475 0.256514 11.2185 0.194514 10.9305C0.131514 10.6435 0.150014 10.3625 0.250014 10.0875C0.350014 9.81255 0.500014 9.58755 0.700014 9.41255C0.900014 9.23755 1.17501 9.12505 1.52501 9.07505L8.80001 8.43755L11.6125 1.76255C11.7375 1.46255 11.9315 1.23755 12.1945 1.08755C12.4565 0.937549 12.725 0.862549 13 0.862549C13.275 0.862549 13.544 0.937549 13.807 1.08755C14.069 1.23755 14.2625 1.46255 14.3875 1.76255L17.2 8.43755L24.475 9.07505C24.825 9.12505 25.1 9.23755 25.3 9.41255C25.5 9.58755 25.65 9.81255 25.75 10.0875C25.85 10.3625 25.869 10.6435 25.807 10.9305C25.744 11.2185 25.5875 11.475 25.3375 11.7L19.825 16.4625L21.475 23.5501C21.55 23.875 21.525 24.1691 21.4 24.432C21.275 24.694 21.1 24.9126 20.875 25.0876C20.65 25.2626 20.3875 25.3625 20.0875 25.3875C19.7875 25.4125 19.5 25.3375 19.225 25.1625L13 21.4125Z" fill="#FF8C00"/>
</svg>
