<svg width="26" height="25" viewBox="0 0 26 25" fill="none" xmlns="http://www.w3.org/2000/svg">
<path d="M24.475 8.56L17.215 7.93L14.38 1.255C13.87 0.04 12.13 0.04 11.62 1.255L8.78499 7.945L1.53999 8.56C0.219987 8.665 -0.320013 10.315 0.684987 11.185L6.18999 15.955L4.53999 23.035C4.23999 24.325 5.63499 25.345 6.77499 24.655L13 20.905L19.225 24.67C20.365 25.36 21.76 24.34 21.46 23.05L19.81 15.955L25.315 11.185C26.32 10.315 25.795 8.665 24.475 8.56ZM13 18.1V4.15L15.565 10.21L22.135 10.78L17.155 15.1L18.655 21.52L13 18.1Z" fill="#FF8C00"/>
</svg>
