<svg width="18" height="16" viewBox="0 0 18 16" fill="none" xmlns="http://www.w3.org/2000/svg">
<path d="M0.749999 8.5C0.749999 8.89783 0.908035 9.27936 1.18934 9.56066C1.47064 9.84197 1.85218 10 2.25 10L6.99 10L6.27 13.4275C6.255 13.5025 6.2475 13.585 6.2475 13.6675C6.2475 13.975 6.375 14.26 6.5775 14.4625L7.3725 15.25L12.3075 10.315C12.585 10.0375 12.75 9.6625 12.75 9.25L12.75 1.75C12.75 1.35218 12.592 0.970646 12.3107 0.689342C12.0294 0.408038 11.6478 0.250001 11.25 0.250001L4.5 0.250002C3.8775 0.250002 3.345 0.625002 3.12 1.165L0.854999 6.4525C0.7875 6.625 0.749999 6.805 0.749999 7L0.749999 8.5ZM17.25 0.250001L14.25 0.250001L14.25 9.25L17.25 9.25L17.25 0.250001Z" fill="#706F6F"/>
</svg>
