<svg width="37" height="6" viewBox="0 0 37 6" fill="none" xmlns="http://www.w3.org/2000/svg">
<path fill-rule="evenodd" clip-rule="evenodd" d="M6.65074 2.96516L5.38657 0.968164L4.13011 2.96516H6.65074ZM18.7667 5.12616L18.759 1.20416L16.0827 5.12616H14.4639L11.7783 1.20016V5.12616H8.0259L7.31674 4.00916H3.47336L2.75649 5.12616H0.752319L4.05765 0.118164H6.79874L9.93757 4.86016V0.118164H12.95L15.3658 3.51516L17.5842 0.118164H20.6583V5.12616H18.7667ZM23.5967 4.10216V3.10516H27.6482V2.08316H23.5967V1.17216H28.2233L30.2429 2.63216L28.1339 4.10216H23.5967ZM36.1012 5.14616H33.7024L31.4299 3.48716L29.0681 5.14616H21.7575V0.136164H29.1807L31.4515 1.77816L33.7995 0.136164H36.2107L32.6232 2.64116L36.1012 5.14616Z" fill="black"/>
</svg>
