<svg width="38" height="17" viewBox="0 0 38 17" fill="none" xmlns="http://www.w3.org/2000/svg">
<path d="M6.94095 2.59678C6.49564 3.13564 5.78314 3.55947 5.07064 3.49893C4.98158 2.77236 5.33189 1.99736 5.74157 1.5251C6.18689 0.974121 6.9647 0.580566 7.60001 0.550293C7.67126 1.30107 7.38032 2.0458 6.94095 2.59678ZM7.58814 3.63818C6.55501 3.57764 5.67032 4.2376 5.18345 4.2376C4.6847 4.2376 3.93657 3.66846 3.1172 3.68662C2.05439 3.70479 1.06876 4.31631 0.52845 5.29111C-0.5878 7.24678 0.237512 10.1349 1.31814 11.7272C1.84657 12.5144 2.47595 13.3802 3.3072 13.3499C4.09689 13.3196 4.40564 12.8292 5.35564 12.8292C6.31157 12.8292 6.59064 13.3499 7.42189 13.3378C8.28282 13.3196 8.82314 12.5507 9.35157 11.7636C9.95126 10.8675 10.2006 10.0017 10.2125 9.95322C10.1947 9.93506 8.55001 9.29326 8.5322 7.35576C8.51439 5.73311 9.83251 4.96416 9.89189 4.91572C9.1497 3.78955 7.99189 3.66846 7.58814 3.63818ZM13.5494 1.44639V13.247H15.3484V9.21455H17.8363C20.1103 9.21455 21.7016 7.62217 21.7016 5.32139C21.7016 3.02061 20.1341 1.44639 17.8956 1.44639H13.5494ZM15.3484 2.99033H17.4206C18.9822 2.99033 19.8728 3.83799 19.8728 5.32744C19.8728 6.8169 18.9822 7.67666 17.4147 7.67666H15.3484V2.99033ZM24.9791 13.3378C26.1072 13.3378 27.1522 12.7565 27.6272 11.8302H27.6628V13.247H29.3253V7.37393C29.3253 5.67256 27.9894 4.57061 25.935 4.57061C24.0291 4.57061 22.6159 5.68467 22.5625 7.21045H24.1834C24.32 6.48389 24.9791 6.00557 25.8816 6.00557C26.98 6.00557 27.5975 6.52627 27.5975 7.48897V8.14287L25.3531 8.28213C23.2691 8.40928 22.1409 9.28115 22.1409 10.7948C22.1469 12.3206 23.3106 13.3378 24.9791 13.3378ZM25.466 11.9392C24.51 11.9392 23.8985 11.4669 23.8985 10.7524C23.8985 10.0077 24.4863 9.57783 25.6084 9.51123L27.6034 9.38408V10.0501C27.6034 11.1521 26.6831 11.9392 25.466 11.9392ZM31.5519 16.456C33.3034 16.456 34.1288 15.7718 34.8472 13.7071L38 4.68565H36.1713L34.0575 11.6546H34.0219L31.9081 4.68565H30.0319L33.0719 13.2772L32.9056 13.7979C32.6325 14.6819 32.1872 15.0271 31.3916 15.0271C31.2491 15.0271 30.9759 15.0089 30.8631 14.9968V16.4136C30.97 16.4378 31.4153 16.456 31.5519 16.456Z" fill="black"/>
</svg>
