<svg width="44" height="7" viewBox="0 0 44 7" fill="none" xmlns="http://www.w3.org/2000/svg">
<g clip-path="url(#clip0_91_62)">
<path d="M23.2337 0.0297852C21.1728 0.0297852 19.5006 1.55473 19.5006 3.43675C19.5006 5.43777 21.1002 6.93349 23.2337 6.93349C25.3141 6.93349 26.9567 5.41791 26.9567 3.47606C26.9567 1.54569 25.3251 0.0297852 23.2337 0.0297852Z" fill="url(#paint0_linear_91_62)"/>
<g filter="url(#filter0_i_91_62)">
<path d="M23.2337 0.0297852C21.1728 0.0297852 19.5006 1.55473 19.5006 3.43675C19.5006 5.43777 21.1002 6.93349 23.2337 6.93349C25.3141 6.93349 26.9567 5.41791 26.9567 3.47606C26.9567 1.54569 25.3251 0.0297852 23.2337 0.0297852Z" fill="#FF8C00"/>
</g>
<path d="M2.04068 0.153918H0.033783V6.78389H2.0302C3.08946 6.78389 3.85551 6.54622 4.52754 6.01894C5.32487 5.3926 5.7977 4.44817 5.7977 3.47208C5.7977 1.51469 4.25383 0.153918 2.04068 0.153918ZM3.63671 5.13344C3.20522 5.50216 2.64963 5.66153 1.76671 5.66153H1.39993V1.2766H1.76671C2.64963 1.2766 3.18391 1.42588 3.63671 1.81316C4.10894 2.21086 4.39056 2.8267 4.39056 3.46264C4.39056 4.09996 4.10894 4.73729 3.63671 5.13344ZM6.42796 6.78389H7.79196V0.153918H6.42813V6.78389H6.42796ZM11.1311 2.69712C10.3114 2.40946 10.0702 2.21973 10.0702 1.86314C10.0702 1.44525 10.4997 1.12741 11.0884 1.12741C11.4978 1.12741 11.8336 1.28637 12.1915 1.66299L12.9044 0.779604C12.3166 0.291476 11.6135 0.0433015 10.8465 0.0433015C9.6092 0.0433015 8.6638 0.858883 8.6638 1.94144C8.6638 2.85681 9.10431 3.32362 10.3853 3.76217C10.9209 3.94019 11.1931 4.05894 11.3299 4.14009C11.6028 4.30915 11.7398 4.54691 11.7398 4.82503C11.7398 5.36273 11.2881 5.75978 10.6784 5.75978C10.0275 5.75978 9.50332 5.45194 9.18828 4.87542L8.30759 5.68156C8.93613 6.55517 9.69204 6.94416 10.7322 6.94416C12.1492 6.94416 13.1457 6.04824 13.1457 4.76619C13.1457 3.7122 12.6851 3.23465 11.1311 2.69712ZM13.5759 3.47216C13.5759 5.4228 15.1929 6.9335 17.2717 6.9335C17.8595 6.9335 18.3632 6.82345 18.9832 6.54614V5.02429C18.4366 5.5418 17.9536 5.75001 17.334 5.75001C15.9594 5.75001 14.9825 4.80534 14.9825 3.46264C14.9825 2.19075 15.9899 1.1865 17.2717 1.1865C17.9215 1.1865 18.4156 1.40505 18.9832 1.93192V0.410232C18.3849 0.122906 17.8907 0.00439453 17.3029 0.00439453C15.2347 0.00439453 13.5759 1.54562 13.5759 3.47216ZM30.046 4.60746L28.1775 0.153918H26.6868L29.6585 6.95328H30.3927L33.4162 0.153836H31.9366L30.046 4.60746ZM34.0369 6.78398H37.9097V5.66153H35.4013V3.87075H37.8137V2.74815H35.4013V1.27652H37.9097V0.153999H34.0368V6.78398H34.0369ZM43.3142 2.11058C43.3142 0.868569 42.4127 0.153918 40.8372 0.153918H38.8111V6.78389H40.1771V4.11926H40.3558L42.2443 6.78389H43.9239L41.7181 3.99122C42.7483 3.79164 43.3142 3.12525 43.3142 2.11058ZM40.5744 3.20551H40.1771V1.19651H40.5962C41.4483 1.19651 41.9099 1.53552 41.9099 2.18074C41.9099 2.84631 41.4483 3.20551 40.5744 3.20551Z" fill="#0B1015"/>
</g>
<defs>
<filter id="filter0_i_91_62" x="19.5006" y="0.0297852" width="10.4561" height="9.90381" filterUnits="userSpaceOnUse" color-interpolation-filters="sRGB">
<feFlood flood-opacity="0" result="BackgroundImageFix"/>
<feBlend mode="normal" in="SourceGraphic" in2="BackgroundImageFix" result="shape"/>
<feColorMatrix in="SourceAlpha" type="matrix" values="0 0 0 0 0 0 0 0 0 0 0 0 0 0 0 0 0 0 127 0" result="hardAlpha"/>
<feOffset dx="3" dy="3"/>
<feGaussianBlur stdDeviation="4"/>
<feComposite in2="hardAlpha" operator="arithmetic" k2="-1" k3="1"/>
<feColorMatrix type="matrix" values="0 0 0 0 0 0 0 0 0 0 0 0 0 0 0 0 0 0 0.5 0"/>
<feBlend mode="normal" in2="shape" result="effect1_innerShadow_91_62"/>
</filter>
<linearGradient id="paint0_linear_91_62" x1="164.254" y1="62.5981" x2="639.322" y2="592.357" gradientUnits="userSpaceOnUse">
<stop stop-color="#F34F26"/>
<stop offset="1" stop-color="#F69E35"/>
</linearGradient>
<clipPath id="clip0_91_62">
<rect width="44" height="7" fill="white"/>
</clipPath>
</defs>
</svg>
