<svg width="10" height="10" viewBox="0 0 10 10" fill="none" xmlns="http://www.w3.org/2000/svg">
<path d="M3.30087 0.875C1.96925 0.875 0.875 1.96775 0.875 3.30087V6.69913C0.875 8.03075 1.96775 9.125 3.30087 9.125H6.69913C8.03075 9.125 9.125 8.03225 9.125 6.69913V3.30125C9.125 1.96925 8.03225 0.875 6.69913 0.875H3.30087ZM3.30087 1.625H6.69913C6.91929 1.6247 7.13734 1.66785 7.3408 1.75197C7.54426 1.83608 7.72913 1.95951 7.88481 2.11519C8.04049 2.27087 8.16392 2.45573 8.24803 2.6592C8.33215 2.86266 8.3753 3.08071 8.375 3.30087V6.69913C8.3753 6.91929 8.33215 7.13734 8.24803 7.3408C8.16392 7.54426 8.04049 7.72913 7.88481 7.88481C7.72913 8.04049 7.54426 8.16392 7.3408 8.24803C7.13734 8.33215 6.91929 8.3753 6.69913 8.375H3.30125C3.08106 8.37535 2.86296 8.33224 2.65946 8.24814C2.45595 8.16405 2.27104 8.04062 2.11532 7.88494C1.95961 7.72926 1.83614 7.54438 1.752 7.34089C1.66786 7.13741 1.6247 6.91932 1.625 6.69913V3.30125C1.62465 3.08106 1.66776 2.86296 1.75186 2.65946C1.83595 2.45595 1.95938 2.27104 2.11506 2.11532C2.27074 1.95961 2.45562 1.83614 2.65911 1.752C2.86259 1.66786 3.08068 1.6247 3.30087 1.625ZM7.21475 2.4455C7.17008 2.4453 7.12581 2.45395 7.0845 2.47096C7.04319 2.48796 7.00566 2.51298 6.97407 2.54457C6.94248 2.57616 6.91746 2.61369 6.90046 2.655C6.88345 2.69631 6.8748 2.74058 6.875 2.78525C6.875 2.97425 7.02575 3.125 7.21475 3.125C7.25945 3.12525 7.30376 3.11663 7.34512 3.09965C7.38647 3.08267 7.42405 3.05766 7.45568 3.02607C7.4873 2.99447 7.51236 2.95692 7.52938 2.91559C7.54641 2.87425 7.55507 2.82995 7.55487 2.78525C7.55507 2.74055 7.54641 2.69625 7.52938 2.65491C7.51236 2.61358 7.4873 2.57603 7.45568 2.54443C7.42405 2.51284 7.38647 2.48783 7.34512 2.47085C7.30376 2.45387 7.25945 2.44525 7.21475 2.4455ZM5 2.75C3.7625 2.75 2.75 3.7625 2.75 5C2.75 6.2375 3.7625 7.25 5 7.25C6.2375 7.25 7.25 6.2375 7.25 5C7.25 3.7625 6.2375 2.75 5 2.75ZM5 3.5C5.83362 3.5 6.5 4.16637 6.5 5C6.5 5.83362 5.83362 6.5 5 6.5C4.16637 6.5 3.5 5.83362 3.5 5C3.5 4.16637 4.16637 3.5 5 3.5Z" fill="black"/>
</svg>
