<svg width="30" height="23" viewBox="0 0 30 23" fill="none" xmlns="http://www.w3.org/2000/svg">
<g clip-path="url(#clip0_91_50)">
<path d="M5.45392 22.8857V21.3634C5.45392 20.7797 5.09368 20.3993 4.47622 20.3993C4.16755 20.3993 3.8331 20.5007 3.60153 20.8306C3.42153 20.5515 3.16431 20.3993 2.77841 20.3993C2.52106 20.3993 2.26396 20.4753 2.05806 20.7544V20.45H1.51782V22.8857H2.05806V21.5409C2.05806 21.1097 2.28962 20.9066 2.64985 20.9066C3.00985 20.9066 3.19009 21.135 3.19009 21.5409V22.8857H3.73032V21.5409C3.73032 21.1097 3.98743 20.9066 4.32188 20.9066C4.68212 20.9066 4.86212 21.135 4.86212 21.5409V22.8857H5.45392ZM13.4544 20.45H12.5799V19.7142H12.0396V20.45H11.5508V20.9319H12.0395V22.0484C12.0395 22.6067 12.2711 22.9364 12.8885 22.9364C13.1201 22.9364 13.3772 22.8604 13.5574 22.7589L13.403 22.3021C13.2486 22.4036 13.0686 22.429 12.94 22.429C12.6827 22.429 12.5799 22.2768 12.5799 22.023V20.9319H13.4544V20.45ZM18.0336 20.3991C17.725 20.3991 17.5192 20.5515 17.3905 20.7544V20.45H16.8503V22.8857H17.3905V21.5156C17.3905 21.1097 17.5705 20.8813 17.905 20.8813C18.0079 20.8813 18.1365 20.9068 18.2394 20.9321L18.3938 20.4247C18.2909 20.3993 18.1365 20.3993 18.0336 20.3993V20.3991ZM11.1135 20.6529C10.8561 20.4753 10.496 20.3993 10.1101 20.3993C9.49278 20.3993 9.08122 20.7037 9.08122 21.1858C9.08122 21.5918 9.38989 21.8201 9.93013 21.8962L10.1874 21.9216C10.4704 21.9723 10.6247 22.0484 10.6247 22.1753C10.6247 22.3529 10.4189 22.4798 10.0587 22.4798C9.69856 22.4798 9.41556 22.3529 9.23544 22.2261L8.97821 22.632C9.26122 22.8349 9.64712 22.9364 10.0329 22.9364C10.7533 22.9364 11.1649 22.6067 11.1649 22.1499C11.1649 21.7186 10.8305 21.4902 10.3159 21.4141L10.0587 21.3887C9.82712 21.3633 9.64712 21.3127 9.64712 21.1604C9.64712 20.9828 9.82712 20.8813 10.1101 20.8813C10.4189 20.8813 10.7276 21.0081 10.8819 21.0843L11.1135 20.6529ZM25.4684 20.3993C25.1596 20.3993 24.9538 20.5515 24.8251 20.7544V20.45H24.2849V22.8857H24.8251V21.5156C24.8251 21.1097 25.0052 20.8813 25.3396 20.8813C25.4426 20.8813 25.5713 20.9068 25.6742 20.9321L25.8285 20.4247C25.7256 20.3993 25.5713 20.3993 25.4684 20.3993ZM18.5739 21.6678C18.5739 22.4036 19.0883 22.9364 19.8859 22.9364C20.246 22.9364 20.5033 22.8604 20.7605 22.6574L20.5033 22.2261C20.2975 22.3783 20.0917 22.4543 19.8601 22.4543C19.4228 22.4543 19.1141 22.1499 19.1141 21.6678C19.1141 21.2112 19.4228 20.9066 19.8601 20.8813C20.0917 20.8813 20.2975 20.9574 20.5033 21.1097L20.7605 20.6784C20.5033 20.4753 20.246 20.3993 19.8859 20.3993C19.0883 20.3993 18.5739 20.9321 18.5739 21.6678ZM23.5647 21.6678V20.45H23.0244V20.7544C22.8443 20.5262 22.5871 20.3993 22.2526 20.3993C21.5581 20.3993 21.0178 20.9321 21.0178 21.6678C21.0178 22.4036 21.5581 22.9364 22.2526 22.9364C22.6127 22.9364 22.8701 22.8096 23.0244 22.5812V22.8857H23.5647V21.6678ZM21.5837 21.6678C21.5837 21.2365 21.8667 20.8813 22.3297 20.8813C22.7671 20.8813 23.0759 21.2112 23.0759 21.6678C23.0759 22.0992 22.7671 22.4543 22.3297 22.4543C21.8667 22.4289 21.5837 22.0992 21.5837 21.6678ZM15.1267 20.3993C14.4063 20.3993 13.8918 20.9066 13.8918 21.6678C13.8918 22.429 14.4062 22.9364 15.1524 22.9364C15.5125 22.9364 15.8727 22.8349 16.1557 22.6067L15.8984 22.2261C15.6926 22.3783 15.4354 22.4798 15.1781 22.4798C14.8437 22.4798 14.5092 22.3276 14.432 21.8961H16.2586V21.6933C16.2844 20.9066 15.8214 20.3993 15.1267 20.3993ZM15.1267 20.8559C15.461 20.8559 15.6927 21.059 15.744 21.4396H14.4578C14.5092 21.1097 14.7408 20.8559 15.1267 20.8559ZM28.5297 21.6678V19.4858H27.9894V20.7544C27.8093 20.5262 27.5521 20.3993 27.2176 20.3993C26.5231 20.3993 25.9828 20.9321 25.9828 21.6678C25.9828 22.4036 26.5231 22.9364 27.2176 22.9364C27.5779 22.9364 27.8351 22.8096 27.9894 22.5812V22.8857H28.5297V21.6678ZM26.5488 21.6678C26.5488 21.2365 26.8317 20.8813 27.2949 20.8813C27.7322 20.8813 28.0409 21.2112 28.0409 21.6678C28.0409 22.0992 27.7322 22.4543 27.2949 22.4543C26.8317 22.4289 26.5488 22.0992 26.5488 21.6678ZM8.48942 21.6678V20.45H7.94919V20.7544C7.76907 20.5262 7.51185 20.3993 7.17739 20.3993C6.48282 20.3993 5.94259 20.9321 5.94259 21.6678C5.94259 22.4036 6.48282 22.9364 7.17739 22.9364C7.53763 22.9364 7.79485 22.8096 7.94919 22.5812V22.8857H8.48942V21.6678ZM6.48282 21.6678C6.48282 21.2365 6.76583 20.8813 7.22884 20.8813C7.66618 20.8813 7.97497 21.2112 7.97497 21.6678C7.97497 22.0992 7.66618 22.4543 7.22884 22.4543C6.76583 22.4289 6.48282 22.0992 6.48282 21.6678Z" fill="black"/>
<path d="M10.9333 1.95361H19.0369V16.3143H10.9333V1.95361Z" fill="#FF5F00"/>
<path d="M11.4479 9.134C11.4479 6.21624 12.8371 3.62822 14.9722 1.95361C13.4031 0.735769 11.4223 0 9.26133 0C4.14176 0 0 4.08487 0 9.134C0 14.183 4.14176 18.268 9.26121 18.268C11.4221 18.268 13.403 17.5322 14.9722 16.3143C12.8371 14.6651 11.4479 12.0518 11.4479 9.134Z" fill="#EB001B"/>
<path d="M29.9704 9.134C29.9704 14.183 25.8286 18.268 20.7091 18.268C18.5481 18.268 16.5673 17.5322 14.998 16.3143C17.159 14.6398 18.5225 12.0518 18.5225 9.134C18.5225 6.21624 17.1332 3.62822 14.998 1.95361C16.5672 0.735769 18.5481 0 20.7091 0C25.8286 0 29.9704 4.1103 29.9704 9.134Z" fill="#F79E1B"/>
</g>
<defs>
<clipPath id="clip0_91_50">
<rect width="30" height="23" fill="white"/>
</clipPath>
</defs>
</svg>
