<svg width="16" height="19" viewBox="0 0 16 19" fill="none" xmlns="http://www.w3.org/2000/svg">
<g clip-path="url(#clip0_91_66)">
<path d="M13.573 1.47885C12.7021 0.47965 11.1279 0.0512695 9.11395 0.0512695H3.26895C3.06969 0.051277 2.87697 0.122837 2.72543 0.253083C2.5739 0.383329 2.47349 0.563719 2.44226 0.761819L0.00851289 16.2995C-0.0398621 16.6059 0.195825 16.8833 0.504325 16.8833H4.11282L5.01907 11.0971L4.99095 11.2783C5.05551 10.8693 5.40301 10.5676 5.81451 10.5676H7.52926C10.8979 10.5676 13.5356 9.19027 14.3061 5.20599C14.3289 5.08816 14.3488 4.97346 14.3659 4.86142C14.2686 4.80957 14.2686 4.80957 14.3659 4.86142C14.5953 3.38879 14.3643 2.38638 13.573 1.47885Z" fill="#27346A"/>
<path d="M6.39983 4.33092C6.49848 4.28364 6.60637 4.25914 6.71564 4.2592H11.298C11.8406 4.2592 12.3468 4.29475 12.8093 4.36968C12.9387 4.39045 13.0674 4.41525 13.1953 4.44404C13.3766 4.48431 13.5558 4.53359 13.7322 4.5917C13.9596 4.66814 14.1713 4.75717 14.3659 4.86142C14.5953 3.38822 14.3643 2.38638 13.573 1.47885C12.7016 0.47965 11.1279 0.0512695 9.11395 0.0512695H3.26845C2.85689 0.0512695 2.50676 0.352879 2.44226 0.761819L0.00851323 16.2989C-0.0398618 16.6058 0.195826 16.8829 0.503826 16.8829H4.11283L5.99301 4.88079C6.0115 4.76282 6.05818 4.65114 6.12905 4.55535C6.19991 4.45957 6.29284 4.38255 6.39983 4.33092Z" fill="#27346A"/>
<path d="M14.3061 5.20591C13.5356 9.18962 10.898 10.5675 7.52926 10.5675H5.81401C5.40251 10.5675 5.05495 10.8692 4.99101 11.2782L3.86358 18.4727C3.82145 18.7408 4.02745 18.9838 4.29695 18.9838H7.33883C7.51307 18.9838 7.68159 18.9211 7.81406 18.8072C7.94654 18.6932 8.03428 18.5355 8.06151 18.3622L8.09114 18.2062L8.66445 14.5486L8.70139 14.3465C8.72862 14.1732 8.81635 14.0155 8.94881 13.9015C9.08128 13.7876 9.24977 13.725 9.42401 13.7249H9.87926C12.8259 13.7249 15.1333 12.5198 15.8075 9.03466C16.089 7.5782 15.9433 6.3622 15.1988 5.50808C14.973 5.24938 14.6926 5.03573 14.3659 4.86133C14.3482 4.97394 14.329 5.08807 14.3061 5.20591Z" fill="#2790C3"/>
<path d="M13.5595 4.53792C13.4394 4.50261 13.3181 4.47135 13.1959 4.44418C13.0679 4.41586 12.9392 4.39123 12.8098 4.37032C12.3468 4.29489 11.8411 4.25928 11.298 4.25928H6.71614C6.6068 4.25903 6.49882 4.28375 6.40033 4.33157C6.29322 4.38303 6.20019 4.46001 6.1293 4.55582C6.0584 4.65163 6.01177 4.7634 5.99345 4.88143L5.01958 11.0972L4.99146 11.2784C5.05552 10.8694 5.40302 10.5677 5.81458 10.5677H7.52983C10.8985 10.5677 13.5361 9.19041 14.3066 5.20613C14.3295 5.0883 14.3488 4.97411 14.3665 4.86155C14.1713 4.75787 13.9601 4.66828 13.7327 4.59235C13.6753 4.57319 13.6176 4.55505 13.5596 4.53792" fill="#1F264F"/>
</g>
<defs>
<clipPath id="clip0_91_66">
<rect width="16" height="19" fill="white"/>
</clipPath>
</defs>
</svg>
