<svg width="8" height="10" viewBox="0 0 8 10" fill="none" xmlns="http://www.w3.org/2000/svg">
<path opacity="0.9" d="M8 4.2306C8 5.31717 7.64091 6.30758 6.99091 7.02395C6.34091 7.74032 5.55455 8.07687 4.72727 8.07687C3.9 8.07687 3.37273 7.7932 3.02727 7.49993L2.53636 9.70191C2.51712 9.78628 2.47178 9.86144 2.40755 9.91544C2.34332 9.96944 2.26387 9.99921 2.18182 10L2.1 9.99038C2.05343 9.97905 2.00942 9.95811 1.9705 9.92877C1.93158 9.89944 1.89851 9.86227 1.87318 9.81941C1.84785 9.77654 1.83076 9.72881 1.82288 9.67895C1.81501 9.62909 1.8165 9.57808 1.82727 9.52883L3.28182 2.99018C3.30352 2.89072 3.36168 2.80445 3.44352 2.75035C3.52535 2.69625 3.62415 2.67875 3.71818 2.7017C3.81221 2.72466 3.89377 2.78618 3.94492 2.87274C3.99607 2.9593 4.01261 3.0638 3.99091 3.16326L3.22273 6.61528C3.36364 6.82683 3.78636 7.30761 4.72727 7.30761C5.97727 7.30761 7.27273 6.15854 7.27273 4.2306C7.27272 3.68982 7.15294 3.15656 6.92297 2.67357C6.693 2.19059 6.35925 1.77131 5.94846 1.44935C5.53768 1.12739 5.0613 0.911703 4.55751 0.819581C4.05371 0.72746 3.53652 0.761466 3.04739 0.918873C2.55826 1.07628 2.1108 1.35271 1.74088 1.726C1.37096 2.0993 1.08887 2.55907 0.917225 3.06846C0.745579 3.57785 0.689151 4.1227 0.752466 4.65931C0.81578 5.19593 0.997076 5.70939 1.28182 6.15854C1.30839 6.20052 1.32688 6.24763 1.33624 6.29718C1.34559 6.34672 1.34563 6.39773 1.33634 6.44729C1.32706 6.49684 1.30863 6.54398 1.28212 6.58601C1.2556 6.62803 1.22152 6.66412 1.18182 6.69221C1.14233 6.72095 1.09779 6.74104 1.05084 6.75129C1.00389 6.76153 0.955479 6.76174 0.908455 6.75188C0.861432 6.74202 0.81675 6.7223 0.777045 6.69389C0.73734 6.66547 0.703416 6.62894 0.677273 6.58644C0.329399 6.03744 0.107957 5.40987 0.0306968 4.75404C-0.0465635 4.09821 0.0225067 3.43236 0.232371 2.80985C0.442236 2.18735 0.787057 1.6255 1.2392 1.16934C1.69134 0.713189 2.23822 0.375415 2.83602 0.183096C3.43381 -0.009224 4.06588 -0.0507406 4.68158 0.0618736C5.29728 0.174488 5.87947 0.438101 6.38149 0.831583C6.88351 1.22506 7.2914 1.73747 7.57247 2.32773C7.85353 2.918 7.99996 3.5697 8 4.2306Z" fill="black"/>
</svg>
