<svg width="8" height="10" viewBox="0 0 8 10" fill="none" xmlns="http://www.w3.org/2000/svg">
<path d="M6.29999 1.91C5.9582 1.51981 5.76984 1.01872 5.76999 0.5H4.22499V6.7C4.21307 7.03551 4.07142 7.35331 3.82987 7.58647C3.58832 7.81963 3.26571 7.94995 2.92999 7.95C2.21999 7.95 1.62999 7.37 1.62999 6.65C1.62999 5.79 2.45999 5.145 3.31499 5.41V3.83C1.58999 3.6 0.0799866 4.94 0.0799866 6.65C0.0799866 8.315 1.45999 9.5 2.92499 9.5C4.49499 9.5 5.76999 8.225 5.76999 6.65V3.505C6.39649 3.95493 7.14867 4.19632 7.91999 4.195V2.65C7.91999 2.65 6.97999 2.695 6.29999 1.91Z" fill="black"/>
</svg>
