<svg width="12" height="9" viewBox="0 0 12 9" fill="none" xmlns="http://www.w3.org/2000/svg">
<path d="M11.23 1C10.845 1.175 10.43 1.29 10 1.345C10.44 1.08 10.78 0.66 10.94 0.155C10.525 0.405 10.065 0.58 9.58002 0.68C9.18502 0.25 8.63002 0 8.00002 0C6.82502 0 5.86502 0.96 5.86502 2.145C5.86502 2.315 5.88502 2.48 5.92002 2.635C4.14002 2.545 2.55502 1.69 1.50002 0.395C1.31502 0.71 1.21002 1.08 1.21002 1.47C1.21002 2.215 1.58502 2.875 2.16502 3.25C1.81002 3.25 1.48002 3.15 1.19002 3V3.015C1.19002 4.055 1.93002 4.925 2.91002 5.12C2.59538 5.2061 2.26507 5.21808 1.94502 5.155C2.08082 5.58124 2.34679 5.9542 2.70553 6.22147C3.06427 6.48873 3.49774 6.63685 3.94502 6.645C3.18683 7.24522 2.24702 7.56966 1.28002 7.565C1.11002 7.565 0.94002 7.555 0.77002 7.535C1.72002 8.145 2.85002 8.5 4.06002 8.5C8.00002 8.5 10.165 5.23 10.165 2.395C10.165 2.3 10.165 2.21 10.16 2.115C10.58 1.815 10.94 1.435 11.23 1Z" fill="black"/>
</svg>
