<svg width="12" height="9" viewBox="0 0 12 9" fill="none" xmlns="http://www.w3.org/2000/svg">
<path d="M6.03825 0.499023H6.105C6.7215 0.501273 9.84525 0.523774 10.6875 0.750274C10.9421 0.8194 11.1741 0.95414 11.3604 1.14103C11.5466 1.32792 11.6805 1.56041 11.7487 1.81527C11.8245 2.10027 11.8778 2.47752 11.9137 2.86677L11.9213 2.94477L11.9377 3.13977L11.9438 3.21777C11.9925 3.90327 11.9985 4.54527 11.9992 4.68552V4.74177C11.9985 4.88727 11.9917 5.57277 11.9377 6.28677L11.9318 6.36552L11.925 6.44352C11.8875 6.87252 11.832 7.29852 11.7487 7.61202C11.6807 7.86699 11.5469 8.09959 11.3606 8.28651C11.1744 8.47343 10.9422 8.6081 10.6875 8.67702C9.8175 8.91102 6.51075 8.92752 6.0525 8.92827H5.946C5.71425 8.92827 4.75575 8.92377 3.75075 8.88927L3.62325 8.88477L3.558 8.88177L3.42975 8.87652L3.3015 8.87127C2.469 8.83452 1.67625 8.77527 1.311 8.67627C1.05637 8.60742 0.824299 8.47286 0.638043 8.28608C0.451788 8.0993 0.317885 7.86685 0.24975 7.61202C0.1665 7.29927 0.111 6.87252 0.0735 6.44352L0.0675 6.36477L0.0615 6.28677C0.0244857 5.77857 0.0039749 5.2693 0 4.75977L0 4.66752C0.0015 4.50627 0.0075 3.94902 0.048 3.33402L0.05325 3.25677L0.0555 3.21777L0.0615 3.13977L0.078 2.94477L0.0855 2.86677C0.1215 2.47752 0.17475 2.09952 0.2505 1.81527C0.31852 1.56031 0.452372 1.32771 0.638635 1.14079C0.824898 0.953864 1.05703 0.819193 1.31175 0.750274C1.677 0.652774 2.46975 0.592773 3.30225 0.555273L3.42975 0.550023L3.55875 0.545524L3.62325 0.543274L3.7515 0.538024C4.46528 0.515054 5.17935 0.502303 5.8935 0.499773H6.03825V0.499023ZM4.8 2.90652V6.52002L7.91775 4.71402L4.8 2.90652Z" fill="black"/>
</svg>
