<svg width="68" height="68" viewBox="0 0 68 68" fill="none" xmlns="http://www.w3.org/2000/svg">
<path d="M8.5 34H34V38.25H8.5V34ZM4.25 23.375H25.5V27.625H4.25V23.375Z" fill="#282828"/>
<path d="M63.5779 35.2878L57.2029 20.4127C57.0393 20.0304 56.767 19.7046 56.4198 19.4756C56.0726 19.2467 55.6659 19.1248 55.25 19.125H48.875V14.875C48.875 14.3114 48.6511 13.7709 48.2526 13.3724C47.8541 12.9739 47.3136 12.75 46.75 12.75H12.75V17H44.625V43.6815C43.6567 44.2438 42.8093 44.9922 42.1317 45.8835C41.454 46.7749 40.9595 47.7916 40.6768 48.875H27.3233C26.806 46.8718 25.576 45.1261 23.8637 43.965C22.1515 42.8038 20.0745 42.3071 18.0221 42.5677C15.9698 42.8284 14.083 43.8287 12.7153 45.381C11.3477 46.9333 10.5932 48.9312 10.5932 51C10.5932 53.0688 11.3477 55.0667 12.7153 56.619C14.083 58.1713 15.9698 59.1716 18.0221 59.4323C20.0745 59.6929 22.1515 59.1962 23.8637 58.035C25.576 56.8739 26.806 55.1282 27.3233 53.125H40.6768C41.139 54.9488 42.1962 56.5663 43.681 57.7217C45.1659 58.8772 46.9936 59.5045 48.875 59.5045C50.7564 59.5045 52.5841 58.8772 54.069 57.7217C55.5538 56.5663 56.611 54.9488 57.0733 53.125H61.625C62.1886 53.125 62.7291 52.9011 63.1276 52.5026C63.5261 52.1041 63.75 51.5636 63.75 51V36.125C63.7501 35.8371 63.6915 35.5522 63.5779 35.2878ZM19.125 55.25C18.2844 55.25 17.4627 55.0007 16.7638 54.5337C16.0649 54.0667 15.5202 53.403 15.1985 52.6264C14.8768 51.8498 14.7927 50.9953 14.9567 50.1709C15.1207 49.3464 15.5254 48.5892 16.1198 47.9948C16.7142 47.4004 17.4715 46.9957 18.2959 46.8317C19.1203 46.6677 19.9748 46.7518 20.7514 47.0735C21.528 47.3952 22.1918 47.9399 22.6588 48.6388C23.1258 49.3377 23.375 50.1594 23.375 51C23.3739 52.1268 22.9258 53.2072 22.129 54.004C21.3322 54.8007 20.2518 55.2489 19.125 55.25ZM48.875 23.375H53.8475L58.4035 34H48.875V23.375ZM48.875 55.25C48.0344 55.25 47.2127 55.0007 46.5138 54.5337C45.8149 54.0667 45.2702 53.403 44.9485 52.6264C44.6269 51.8498 44.5427 50.9953 44.7067 50.1709C44.8707 49.3464 45.2754 48.5892 45.8698 47.9948C46.4642 47.4004 47.2215 46.9957 48.0459 46.8317C48.8703 46.6677 49.7248 46.7518 50.5014 47.0735C51.278 47.3952 51.9418 47.9399 52.4088 48.6388C52.8757 49.3377 53.125 50.1594 53.125 51C53.1239 52.1268 52.6758 53.2072 51.879 54.004C51.0822 54.8007 50.0018 55.2489 48.875 55.25ZM59.5 48.875H57.0733C56.6052 47.0548 55.5463 45.4414 54.0626 44.2877C52.579 43.134 50.7544 42.5052 48.875 42.5V38.25H59.5V48.875Z" fill="#282828"/>
</svg>
