<svg width="74" height="66" viewBox="0 0 74 66" fill="none" xmlns="http://www.w3.org/2000/svg">
<path d="M55.5 30.9375C62.309 30.9375 67.8333 25.3945 67.8333 18.5625C67.8333 11.7305 62.309 6.1875 55.5 6.1875C50.9392 6.1875 46.9437 8.67539 44.8111 12.375H38.0535C40.5972 5.16914 47.4448 0 55.5 0C65.7135 0 74 8.31445 74 18.5625C74 28.8105 65.7135 37.125 55.5 37.125C51.9413 37.125 48.6267 36.1195 45.8003 34.3793L50.3483 29.816C51.9156 30.5379 53.6628 30.9375 55.5 30.9375ZM0.231244 18.4078C0.706591 17.2477 1.83715 16.5 3.08333 16.5H50.3611C51.6073 16.5 52.7378 17.2477 53.2132 18.4078C53.6885 19.568 53.4316 20.8957 52.5451 21.7852L29.8055 44.6016V59.8125H38.0278C39.7365 59.8125 41.1111 61.1918 41.1111 62.9062C41.1111 64.6207 39.7365 66 38.0278 66H15.4167C13.708 66 12.3333 64.6207 12.3333 62.9062C12.3333 61.1918 13.708 59.8125 15.4167 59.8125H23.6389V44.5887L0.8993 21.7852C0.0128413 20.8957 -0.244103 19.568 0.231244 18.4078Z" fill="#282828"/>
</svg>
