<svg width="60" height="44" viewBox="0 0 60 44" fill="none" xmlns="http://www.w3.org/2000/svg">
<path d="M55.5 0.75H4.5C3.37283 0.75 2.29183 1.19777 1.4948 1.9948C0.697766 2.79183 0.25 3.87283 0.25 5V38.9734C0.25 40.1006 0.697766 41.1816 1.4948 41.9786C2.29183 42.7757 3.37283 43.2234 4.5 43.2234H55.5C56.6272 43.2234 57.7082 42.7757 58.5052 41.9786C59.3022 41.1816 59.75 40.1006 59.75 38.9734V5C59.75 3.87283 59.3022 2.79183 58.5052 1.9948C57.7082 1.19777 56.6272 0.75 55.5 0.75ZM32.125 34.75H27.875C27.3114 34.75 26.7709 34.5261 26.3724 34.1276C25.9739 33.7291 25.75 33.1886 25.75 32.625C25.75 32.0614 25.9739 31.5209 26.3724 31.1224C26.7709 30.7239 27.3114 30.5 27.875 30.5H32.125C32.6886 30.5 33.2291 30.7239 33.6276 31.1224C34.0261 31.5209 34.25 32.0614 34.25 32.625C34.25 33.1886 34.0261 33.7291 33.6276 34.1276C33.2291 34.5261 32.6886 34.75 32.125 34.75ZM49.125 34.75H40.625C40.0614 34.75 39.5209 34.5261 39.1224 34.1276C38.7239 33.7291 38.5 33.1886 38.5 32.625C38.5 32.0614 38.7239 31.5209 39.1224 31.1224C39.5209 30.7239 40.0614 30.5 40.625 30.5H49.125C49.6886 30.5 50.2291 30.7239 50.6276 31.1224C51.0261 31.5209 51.25 32.0614 51.25 32.625C51.25 33.1886 51.0261 33.7291 50.6276 34.1276C50.2291 34.5261 49.6886 34.75 49.125 34.75ZM4.5 11.6141V5H55.5V11.6141H4.5Z" fill="#282828"/>
</svg>
